# xmcd CD database file
#
# Track frame offsets:
#	150
#	46634
#	71789
#	111874
#	148930
#	180441
#	231311
#	278483
#	307651
#
# Disc length: 4481 seconds
#
# Revision: 2
# Processed by: cddbd v1.5.2PL0 Copyright (c) Steve Scherf et al.
# Submitted via: CDex 1.70beta2
#
DISCID=75117f09
DTITLE=Paul Spencer Band - Level Groove
DYEAR=2007
DGENRE=Jazz
TTITLE0=Trinity
TTITLE1=Seasons of Love
TTITLE2=The Dom
TTITLE3=In The Spirit
TTITLE4=That Like That
TTITLE5=Alone
TTITLE6=Level Groove
TTITLE7=Metrology
TTITLE8=Blues At Caroline's
EXTD=YEAR: 2007
EXTT0=
EXTT1=
EXTT2=
EXTT3=
EXTT4=
EXTT5=
EXTT6=
EXTT7=
EXTT8=
PLAYORDER=
